<?xml version="1.0" standalone="no"?><!DOCTYPE svg PUBLIC "-//W3C//DTD SVG 1.1//EN" "http://www.w3.org/Graphics/SVG/1.1/DTD/svg11.dtd"><svg t="1620011474845" class="icon" viewBox="0 0 1024 1024" version="1.1" xmlns="http://www.w3.org/2000/svg" p-id="5412" xmlns:xlink="http://www.w3.org/1999/xlink" width="200" height="200"><defs><style type="text/css"></style></defs><path d="M233.0624 970.1888c-15.8208 0-31.6416-4.096-46.1824-12.2368-30.0544-16.896-48.0256-47.5648-48.0256-82.0736V197.4272c0-73.4208 59.6992-133.12 133.12-133.12h485.4272c73.4208 0 133.12 59.6992 133.12 133.12v672.768c0 34.7648-19.0464 66.6112-49.7152 82.9952a93.96736 93.96736 0 0 1-96.6656-4.6592l-197.1712-131.4816a32.75264 32.75264 0 0 0-35.1232-0.7168l-229.888 139.9296c-15.2064 9.2672-32.0512 13.9264-48.896 13.9264z m38.912-844.4416c-39.5264 0-71.68 32.1536-71.68 71.68v678.4c0 17.2544 11.6736 25.7024 16.6912 28.5184 5.0176 2.816 18.2784 8.3968 33.024-0.5632l229.888-139.9296c31.1296-18.944 70.8608-18.1248 101.1712 2.0992L778.24 897.4336c10.1888 6.8096 22.784 7.424 33.5872 1.6384 10.8032-5.7856 17.2544-16.5888 17.2544-28.8256V197.4272c0-39.5264-32.1536-71.68-71.68-71.68H271.9744z" fill="#303135" p-id="5413"></path><path d="M678.5024 287.0272H350.9248c-16.9472 0-30.72-13.7728-30.72-30.72s13.7728-30.72 30.72-30.72h327.6288c16.9472 0 30.72 13.7728 30.72 30.72s-13.7728 30.72-30.7712 30.72z" fill="#fbaa00" p-id="5414" data-spm-anchor-id="a313x.7781069.0.i23" class="selected"></path></svg>