<?xml version="1.0" standalone="no"?><!DOCTYPE svg PUBLIC "-//W3C//DTD SVG 1.1//EN" "http://www.w3.org/Graphics/SVG/1.1/DTD/svg11.dtd"><svg t="1620011587321" class="icon" viewBox="0 0 1024 1024" version="1.1" xmlns="http://www.w3.org/2000/svg" p-id="8404" data-spm-anchor-id="a313x.7781069.0.i55" xmlns:xlink="http://www.w3.org/1999/xlink" width="200" height="200"><defs><style type="text/css"></style></defs><path d="M916.95104 536.5248l-386.41152 172.93312-421.94432-26.624 54.7328 74.04032L503.88992 913.408l381.952-164.06016 31.08864-39.9104V536.5248z" fill="#fbaa00" p-id="8405" data-spm-anchor-id="a313x.7781069.0.i52" class="selected"></path><path d="M877.68064 230.71232l-289.82272-148.05504a145.69984 145.69984 0 0 0-127.34976-2.85696L158.24384 217.49248a147.06688 147.06688 0 0 0-85.6576 130.36544L66.56 664.18688a146.5088 146.5088 0 0 0 84.0448 135.168l295.58784 139.02848a146.57024 146.57024 0 0 0 120.27904 1.97632l296.48384-127.71328a146.62656 146.62656 0 0 0 88.43264-131.584L957.44 363.79648a147.20512 147.20512 0 0 0-79.75936-133.08416zM488.09472 140.288a79.488 79.488 0 0 1 69.48352 1.536l289.82784 148.04992a78.81728 78.81728 0 0 1 15.232 10.24l-344.13056 169.55904L168.448 288.90112a78.976 78.976 0 0 1 17.408-10.9056zM178.92352 739.22048a79.95904 79.95904 0 0 1-45.85472-73.76896l6.03136-316.32384c0-0.17408 0-0.34816 0.03072-0.512l345.75872 178.53952v355.0208a79.62624 79.62624 0 0 1-10.38336-3.92192z m705.9456-59.392A79.99488 79.99488 0 0 1 836.608 751.616l-285.184 122.88v-346.9056L890.88 360.36096c0 0.72192 0.0512 1.44384 0.04096 2.16576z" fill="#2c2c2c" p-id="8406" data-spm-anchor-id="a313x.7781069.0.i51" class=""></path></svg>