<?xml version="1.0" standalone="no"?><!DOCTYPE svg PUBLIC "-//W3C//DTD SVG 1.1//EN" "http://www.w3.org/Graphics/SVG/1.1/DTD/svg11.dtd"><svg t="1620010845918" class="icon" viewBox="0 0 1024 1024" version="1.1" xmlns="http://www.w3.org/2000/svg" p-id="2830" xmlns:xlink="http://www.w3.org/1999/xlink" width="200" height="200"><defs><style type="text/css"></style></defs><path d="M598.8352 443.4944a10.22976 10.22976 0 0 1-10.24-10.24V160.1024c0-1.5872 0.3584-3.1744 1.0752-4.5568l1.9968-3.9936a10.24 10.24 0 0 1 9.1648-5.6832c156.6208 0 284.0576 127.4368 284.0576 284.0576 0 3.9936-2.3552 7.6288-5.9904 9.3184l-3.9936 1.792c-1.3312 0.6144-2.7648 0.9216-4.1984 0.9216l-271.872 1.4848c0.0512 0.0512 0 0.0512 0 0.0512z m10.24-276.992v256.4608l255.232-1.3824c-4.4032-138.752-116.48-250.7776-255.232-255.0784z" p-id="2831"></path><path d="M490.7008 872.7552c-190.1056 0-344.7296-154.6752-344.7296-344.7296S300.6464 183.296 490.7008 183.296c5.632 0 10.24 4.608 10.24 10.24s-4.608 10.24-10.24 10.24c-178.7904 0-324.2496 145.4592-324.2496 324.2496s145.4592 324.2496 324.2496 324.2496c181.8624 0 324.2496-138.2912 324.2496-314.7776 0-5.632 4.608-10.24 10.24-10.24s10.24 4.608 10.24 10.24c0 188.0064-151.3984 335.2576-344.7296 335.2576z" p-id="2832"></path><path d="M825.1904 540.672H490.7008c-5.632 0-10.24-4.608-10.24-10.24V193.4848c0-5.632 4.608-10.24 10.24-10.24s10.24 4.608 10.24 10.24v326.7072h324.2496a10.24 10.24 0 1 1 0 20.48z" p-id="2833"></path></svg>