<?xml version="1.0" standalone="no"?><!DOCTYPE svg PUBLIC "-//W3C//DTD SVG 1.1//EN" "http://www.w3.org/Graphics/SVG/1.1/DTD/svg11.dtd"><svg t="1619408298483" class="icon" viewBox="0 0 1024 1024" version="1.1" xmlns="http://www.w3.org/2000/svg" p-id="1553" xmlns:xlink="http://www.w3.org/1999/xlink" width="200" height="200"><defs><style type="text/css"></style></defs><path d="M513.14815 79.817883c-238.050698 0-431.024757 192.965873-431.024757 431.016571s192.97406 431.016571 431.024757 431.016571 431.016571-192.965873 431.016571-431.016571S751.198847 79.817883 513.14815 79.817883zM513.14815 893.960295c-211.595162 0-383.134027-171.530678-383.134027-383.125841s171.537841-383.125841 383.134027-383.125841 383.125841 171.530678 383.125841 383.125841S724.743312 893.960295 513.14815 893.960295z" p-id="1554"></path><path d="M705.069639 296.357687l22.572796 22.572796-406.366041 406.366041-22.572796-22.572796 406.366041-406.366041Z" p-id="1555"></path><path d="M727.628012 702.724833 705.053877 725.314317 298.66931 318.944076 321.241398 296.355615Z" p-id="1556"></path></svg>